<svg xmlns="http://www.w3.org/2000/svg" width="988" height="440"><defs><style>@import url('https://fonts.googleapis.com/css2?family=Roboto+Mono&amp;display=swap')</style><style>text,text&gt;tspan{font-family:'Roboto Mono';font-size:16px} rect{stroke:black} line,path{fill:none;stroke:black}</style><marker id="arrowMarker" orient="auto" refX="6" refY="5" markerHeight="10" markerWidth="5"><path style="fill:black;stroke:black" d="M 0 0 L 5 5 L 0 10 Z"></path></marker><marker id="inheritMarker" orient="auto" refX="16" refY="7.5" markerHeight="15" markerWidth="15"><path style="fill:white;stroke:black" d="M 0 0 L 15 7.5 L 0 15 Z"></path></marker><marker id="aggregationMarker" orient="auto" refX="21" refY="7.5" markerHeight="15" markerWidth="20"><path style="fill:white;stroke:black" d="M 0 7.5 L 10 0 L 20 7.5 L 10 15 Z"></path></marker><marker id="compositionMarker" orient="auto" refX="21" refY="7.5" markerHeight="15" markerWidth="20"><path style="fill:black;stroke:black" d="M 0 7.5 L 10 0 L 20 7.5 L 10 15 Z"></path></marker></defs><g transform="translate(207,5)"><rect height="58" width="152" style="fill:white"></rect><rect height="21" width="152.5" style="fill:lightgrey"></rect><text x="47.75" y="16">Status</text><text><tspan x="2.5" y="37" style="text-decoration:underline">status_name</tspan><tspan x="2.5" y="53">status_category</tspan></text></g><g transform="translate(5,113)"><rect height="106" width="152" style="fill:white"></rect><rect height="21" width="152.5" style="fill:lightgrey"></rect><text x="47.75" y="16">Module</text><text><tspan x="2.5" y="37" style="text-decoration:underline">module_id</tspan><tspan x="2.5" y="53">module_name</tspan><tspan x="2.5" y="69">reference_code</tspan><tspan x="2.5" y="85">activation_date</tspan><tspan x="2.5" y="101">status_message</tspan></text></g><g transform="translate(428,129)"><rect height="74" width="162" style="fill:white"></rect><rect height="21" width="162" style="fill:lightgrey"></rect><text x="33.5" y="16">ModuleType</text><text><tspan x="2.5" y="37" style="text-decoration:underline">module_type_name</tspan><tspan x="2.5" y="53">picture_file</tspan><tspan x="2.5" y="69">description</tspan></text></g><g transform="translate(19,361)"><rect height="74" width="124" style="fill:white"></rect><rect height="21" width="124" style="fill:lightgrey"></rect><text x="24" y="16">ValueLog</text><text><tspan x="2.5" y="37" style="text-decoration:underline">value_log_id</tspan><tspan x="2.5" y="53">data</tspan><tspan x="2.5" y="69">log_date</tspan></text></g><g transform="translate(409,377)"><rect height="42" width="200" style="fill:white"></rect><rect height="21" width="200" style="fill:lightgrey"></rect><text x="28.75" y="16">ModuleTypeValue</text><text><tspan x="2.5" y="37" style="text-decoration:underline">module_type_value_id</tspan></text></g><g transform="translate(786,369)"><rect height="58" width="152" style="fill:white"></rect><rect height="21" width="152.5" style="fill:lightgrey"></rect><text x="33.5" y="16">ValueType</text><text><tspan x="2.5" y="37" style="text-decoration:underline">value_type_name</tspan><tspan x="2.5" y="53">unit</tspan></text></g><g transform="translate(47,13)"><rect height="42" width="67.5" rx="20" ry="20" style="fill:lightgrey"></rect><line x1="0" x2="67.5" y1="21" y2="21"></line><text x="10" y="17">is_of</text><text></text></g><g transform="translate(240,145)"><rect height="42" width="86.5" rx="20" ry="20" style="fill:lightgrey"></rect><line x1="0" x2="86.5" y1="21" y2="21"></line><text x="10" y="17">is_type</text><text></text></g><g transform="translate(57,269)"><rect height="42" width="48.5" rx="20" ry="20" style="fill:lightgrey"></rect><line x1="0" x2="48.5" y1="21" y2="21"></line><text x="10" y="17">log</text><text></text></g><g transform="translate(432,269)"><rect height="42" width="153" rx="20" ry="20" style="fill:lightgrey"></rect><line x1="0" x2="153" y1="21" y2="21"></line><text x="10" y="17">has_value_type</text><text></text></g><g transform="translate(230,377)"><rect height="42" width="105.5" rx="20" ry="20" style="fill:lightgrey"></rect><line x1="0" x2="105.5" y1="21" y2="21"></line><text x="10" y="17">is_linked</text><text></text></g><g transform="translate(659,377)"><rect height="42" width="77" rx="20" ry="20" style="fill:lightgrey"></rect><line x1="0" x2="77" y1="21" y2="21"></line><text x="10" y="17">mesure</text><text></text></g><g><line x1="80" x2="81" y1="55" y2="113"></line><text x="86" y="106">1,1</text></g><g><line x1="114" x2="207" y1="34" y2="34"></line><text x="171" y="55">0,N</text></g><g><line x1="240" x2="157" y1="166" y2="166"></line><text x="162" y="187">1,1</text></g><g><line x1="326" x2="428" y1="166" y2="166"></line><text x="392" y="187">0,N</text></g><g><line x1="81" x2="81" y1="269" y2="219"></line><text x="86" y="240">0,N</text></g><g><line x1="81" x2="81" y1="311" y2="361"></line><text x="86" y="354">1,1</text></g><g><line x1="508" x2="509" y1="269" y2="203"></line><text x="514" y="224">0,N</text></g><g><line x1="508" x2="509" y1="311" y2="377"></line><text x="514" y="370">1,1</text></g><g><line x1="230" x2="143" y1="398" y2="398"></line><text x="148" y="419">1,1</text></g><g><line x1="335" x2="409" y1="398" y2="398"></line><text x="373" y="419">0,N</text></g><g><line x1="736" x2="786" y1="398" y2="398"></line><text x="750" y="419">0,N</text></g><g><line x1="659" x2="609" y1="398" y2="398"></line><text x="614" y="419">1,1</text></g></svg>